<svg width="42" height="23" viewBox="0 0 42 23" fill="none" xmlns="http://www.w3.org/2000/svg">
<path d="M19.6436 11.7797C19.4841 9.12263 20.8082 3.40999 27.381 1.81577C27.1683 5.13707 25.323 11.7797 19.6436 11.7797Z" stroke="#F8F8F8"/>
<path d="M14.938 13.0268C17.2819 12.9377 22.2638 14.6381 23.4394 22.1527C20.5237 21.7963 14.7415 19.4723 14.938 13.0268Z" stroke="#F8F8F8"/>
<path d="M9.52523 13.0268C8.6438 10.5588 8.33268 4.66219 14.1397 0.819336C14.8499 4.05027 14.9213 11.0151 9.52523 13.0268Z" stroke="#F8F8F8"/>
<path d="M0.500076 19.6605C2.80282 15.872 11.4827 9.43147 27.7805 13.9777" stroke="#F8F8F8" stroke-linecap="round"/>
<path d="M27.9338 14.0643C30.1856 12.445 35.8399 10.5918 40.4429 16.1328C38.2834 17.5032 32.7583 19.0079 27.9338 14.0643Z" stroke="#F8F8F8" stroke-linecap="round"/>
</svg>
